<svg width="1246" height="371" viewBox="0 0 1246 371" fill="none" xmlns="http://www.w3.org/2000/svg">
<path d="M47.7227 298.7H60.4227L87.6227 369H73.6227L68.7227 355.5H39.4227L34.5227 369H20.4227L47.7227 298.7ZM53.4227 317.2L43.7227 343.9H64.4227L54.7227 317.2L54.0227 314.8L53.4227 317.2Z" fill="black"/>
<path d="M201.441 298.7H230.441C235.174 298.7 239.374 299.667 243.041 301.6C246.708 303.533 249.541 306.267 251.541 309.8C253.541 313.333 254.541 317.4 254.541 322C254.541 326.6 253.508 330.567 251.441 333.9C249.441 337.233 246.641 339.867 243.041 341.8L256.341 369H241.041L230.041 345.3L226.741 345.4H214.941V369H201.441V298.7ZM229.241 333.4C232.708 333.4 235.508 332.367 237.641 330.3C239.774 328.167 240.841 325.433 240.841 322.1C240.841 318.7 239.774 316 237.641 314C235.508 312 232.741 311 229.341 311H214.941V333.4H229.241Z" fill="black"/>
<path d="M389.222 311.4H368.622V298.7H423.422V311.4H402.822V369H389.222V311.4Z" fill="black"/>
<path d="M561.263 298.7H574.763V369H561.263V298.7Z" fill="black"/>
<path d="M746.359 370.1C740.826 370.1 735.592 369.033 730.659 366.9C725.792 364.767 721.592 361.633 718.059 357.5L726.659 348.7C729.326 351.567 732.326 353.767 735.659 355.3C739.059 356.767 742.559 357.5 746.159 357.5C749.959 357.5 752.926 356.733 755.059 355.2C757.259 353.667 758.359 351.567 758.359 348.9C758.359 346.433 757.259 344.433 755.059 342.9C752.859 341.367 748.859 339.8 743.059 338.2C737.792 336.733 733.626 335.1 730.559 333.3C727.492 331.5 725.259 329.333 723.859 326.8C722.526 324.267 721.859 321.2 721.859 317.6C721.859 313.867 722.759 310.5 724.559 307.5C726.426 304.433 729.159 302.033 732.759 300.3C736.359 298.5 740.726 297.6 745.859 297.6C750.792 297.6 755.359 298.433 759.559 300.1C763.759 301.7 767.492 304.033 770.759 307.1L762.959 316.4C760.892 314.533 758.359 313 755.359 311.8C752.426 310.533 749.459 309.9 746.459 309.9C743.259 309.9 740.626 310.567 738.559 311.9C736.492 313.233 735.459 314.933 735.459 317C735.459 319.267 736.459 321.133 738.459 322.6C740.459 324 744.159 325.533 749.559 327.2C755.226 328.933 759.659 330.767 762.859 332.7C766.126 334.633 768.459 336.867 769.859 339.4C771.326 341.933 772.059 345 772.059 348.6C772.059 352.933 770.959 356.733 768.759 360C766.626 363.267 763.592 365.767 759.659 367.5C755.792 369.233 751.359 370.1 746.359 370.1Z" fill="black"/>
<path d="M896.222 311.4H875.622V298.7H930.422V311.4H909.822V369H896.222V311.4Z" fill="black"/>
<path d="M1017.44 298.7H1046.44C1051.17 298.7 1055.37 299.667 1059.04 301.6C1062.71 303.533 1065.54 306.267 1067.54 309.8C1069.54 313.333 1070.54 317.4 1070.54 322C1070.54 326.6 1069.51 330.567 1067.44 333.9C1065.44 337.233 1062.64 339.867 1059.04 341.8L1072.34 369H1057.04L1046.04 345.3L1042.74 345.4H1030.94V369H1017.44V298.7ZM1045.24 333.4C1048.71 333.4 1051.51 332.367 1053.64 330.3C1055.77 328.167 1056.84 325.433 1056.84 322.1C1056.84 318.7 1055.77 316 1053.64 314C1051.51 312 1048.74 311 1045.34 311H1030.94V333.4H1045.24Z" fill="black"/>
<path d="M1185.31 340.8L1160.91 298.7H1176.61L1192.11 328.1L1207.31 298.7H1223.11L1198.81 340.7V369H1185.31V340.8Z" fill="black"/>
<path d="M58.0051 279C51.4051 279 45.3717 277.433 39.9051 274.3C34.4384 271.1 30.1051 266.733 26.9051 261.2C23.7051 255.667 22.1051 249.567 22.1051 242.9C22.1051 236.233 23.7051 230.133 26.9051 224.6C30.1051 219.067 34.4384 214.7 39.9051 211.5C45.3717 208.3 51.4051 206.7 58.0051 206.7C67.0051 206.7 74.9384 209.7 81.8051 215.7L80.2051 217.7C77.0717 215.1 73.6051 213.067 69.8051 211.6C66.0717 210.133 62.1384 209.4 58.0051 209.4C52.0051 209.4 46.4717 210.9 41.4051 213.9C36.3384 216.833 32.3051 220.867 29.3051 226C26.3717 231.067 24.9051 236.7 24.9051 242.9C24.9051 249.1 26.3717 254.767 29.3051 259.9C32.3051 264.967 36.3384 268.967 41.4051 271.9C46.4717 274.833 52.0051 276.3 58.0051 276.3C65.9384 276.3 73.3384 273.433 80.2051 267.7L81.8051 269.8C74.6051 275.933 66.6717 279 58.0051 279ZM224.997 279C218.397 279 212.364 277.433 206.897 274.3C201.431 271.1 197.097 266.733 193.897 261.2C190.697 255.667 189.097 249.567 189.097 242.9C189.097 236.233 190.697 230.133 193.897 224.6C197.097 219.067 201.431 214.7 206.897 211.5C212.364 208.3 218.397 206.7 224.997 206.7C231.597 206.7 237.631 208.3 243.097 211.5C248.564 214.7 252.897 219.067 256.097 224.6C259.297 230.133 260.897 236.233 260.897 242.9C260.897 249.567 259.297 255.667 256.097 261.2C252.897 266.733 248.564 271.1 243.097 274.3C237.631 277.433 231.597 279 224.997 279ZM224.997 276.3C231.064 276.3 236.631 274.833 241.697 271.9C246.764 268.967 250.764 264.967 253.697 259.9C256.631 254.767 258.097 249.1 258.097 242.9C258.097 236.7 256.631 231.067 253.697 226C250.764 220.867 246.764 216.833 241.697 213.9C236.631 210.9 231.064 209.4 224.997 209.4C218.997 209.4 213.464 210.9 208.397 213.9C203.331 216.833 199.297 220.867 196.297 226C193.364 231.067 191.897 236.7 191.897 242.9C191.897 249.1 193.364 254.767 196.297 259.9C199.297 264.967 203.331 268.967 208.397 271.9C213.464 274.833 218.997 276.3 224.997 276.3ZM395.438 278.7C390.238 278.7 385.238 277.733 380.438 275.8C375.638 273.8 371.705 270.933 368.638 267.2L370.638 265.2C373.505 268.667 377.205 271.333 381.738 273.2C386.271 275.067 390.938 276 395.738 276C401.738 276 406.771 274.567 410.838 271.7C414.971 268.833 417.038 264.767 417.038 259.5C417.038 256.7 416.305 254.367 414.838 252.5C413.438 250.567 411.071 248.867 407.738 247.4C404.405 245.867 399.805 244.367 393.938 242.9C388.138 241.5 383.571 240 380.238 238.4C376.905 236.8 374.505 234.933 373.038 232.8C371.638 230.667 370.938 228 370.938 224.8C370.938 221.133 372.038 217.967 374.238 215.3C376.438 212.633 379.371 210.6 383.038 209.2C386.705 207.733 390.705 207 395.038 207C399.171 207 403.171 207.7 407.038 209.1C410.971 210.433 414.405 212.4 417.338 215L415.638 217C413.038 214.6 409.938 212.8 406.338 211.6C402.738 210.333 399.038 209.7 395.238 209.7C391.438 209.7 387.871 210.3 384.538 211.5C381.271 212.7 378.638 214.467 376.638 216.8C374.705 219.067 373.738 221.733 373.738 224.8C373.738 227.467 374.405 229.7 375.738 231.5C377.071 233.3 379.238 234.9 382.238 236.3C385.305 237.7 389.505 239.067 394.838 240.4C401.171 241.933 406.138 243.567 409.738 245.3C413.338 246.967 415.905 248.933 417.438 251.2C419.038 253.467 419.838 256.233 419.838 259.5C419.838 263.633 418.738 267.167 416.538 270.1C414.338 272.967 411.371 275.133 407.638 276.6C403.971 278 399.905 278.7 395.438 278.7ZM537.048 207.7H540.448L567.748 273.5L594.948 207.7H598.448L605.848 278H602.948L596.148 212L568.748 278H566.648L539.348 212L532.448 278H529.648L537.048 207.7ZM721.639 207.7H769.639V210.4H724.439V240H761.939V242.8H724.439V275.3H770.339V278H721.639V207.7ZM901.72 210.4H876.92V207.7H929.42V210.4H904.52V278H901.72V210.4ZM1039.41 207.7H1042.21V278H1039.41V207.7ZM1193.06 279C1186.46 279 1180.43 277.433 1174.96 274.3C1169.5 271.1 1165.16 266.733 1161.96 261.2C1158.76 255.667 1157.16 249.567 1157.16 242.9C1157.16 236.233 1158.76 230.133 1161.96 224.6C1165.16 219.067 1169.5 214.7 1174.96 211.5C1180.43 208.3 1186.46 206.7 1193.06 206.7C1202.06 206.7 1210 209.7 1216.86 215.7L1215.26 217.7C1212.13 215.1 1208.66 213.067 1204.86 211.6C1201.13 210.133 1197.2 209.4 1193.06 209.4C1187.06 209.4 1181.53 210.9 1176.46 213.9C1171.4 216.833 1167.36 220.867 1164.36 226C1161.43 231.067 1159.96 236.7 1159.96 242.9C1159.96 249.1 1161.43 254.767 1164.36 259.9C1167.36 264.967 1171.4 268.967 1176.46 271.9C1181.53 274.833 1187.06 276.3 1193.06 276.3C1201 276.3 1208.4 273.433 1215.26 267.7L1216.86 269.8C1209.66 275.933 1201.73 279 1193.06 279Z" fill="black"/>
<path d="M440.772 98.0744C433.72 92.2723 425.634 89.3713 416.515 89.3713C408.799 89.3713 399.972 91.7014 390.019 96.3307L389.279 95.0808C397.318 88.7849 401.793 82.8131 402.719 77.1653V76.0388C402.719 70.067 399.232 66.6258 392.272 65.7154C394.016 64.2186 395.883 63.4779 397.874 63.4779C399.201 63.4779 400.775 63.6785 402.596 64.0951L402.719 63.3544C402.719 60.2837 401.747 57.861 399.803 56.071C397.858 54.2964 395.297 53.4786 392.149 53.6483L389.171 53.7718C390.667 50.3769 393.445 48.664 397.503 48.664H399.617C400.204 48.664 400.945 48.8338 401.855 49.1578L401.608 43.186C401.438 39.2048 402.225 35.3007 403.969 31.4892C405.543 28.0944 408.027 24.4372 411.438 20.5486C407.796 22.7861 404.092 23.9126 400.374 23.9126C399.216 23.9126 397.226 23.5885 394.402 22.925C393.075 22.6009 391.979 22.3386 391.099 22.1843C390.235 22.0146 389.495 21.9374 388.924 21.9374C386.347 21.9374 383.909 23.7274 381.579 27.292L380.714 26.5513C382.535 17.8482 387.35 13.4966 395.142 13.4966H396.13C398.445 13.4966 401.238 14.0367 404.463 15.1169C407.95 16.1044 410.358 16.6137 411.685 16.6137C413.336 16.6137 415.049 16.3668 416.792 15.873C416.962 15.7958 417.44 15.6106 418.227 15.3174C419.014 15.0242 420.079 14.5922 421.406 14.0058L421.777 14.623C414.971 20.4251 411.577 27.3537 411.577 35.3933C411.577 36.134 411.623 37.0753 411.7 38.1863C411.777 39.3128 411.901 40.6553 412.07 42.2293C412.24 43.8032 412.364 45.1458 412.441 46.2722C412.518 47.3833 412.564 48.3709 412.564 49.1887C412.564 50.0991 412.61 51.4262 412.688 53.1699C412.765 54.9137 412.811 56.2407 412.811 57.1511C412.811 63.2001 411.947 68.5084 410.203 73.076C409.54 74.7426 408.537 76.7641 407.225 79.1713C405.898 81.5786 404.247 84.3099 402.256 87.3807L402.627 87.751C408.676 82.9365 412.996 78.3843 415.558 74.0636C418.459 68.9251 419.909 62.9069 419.909 56.0247C419.909 54.8673 419.863 53.4323 419.786 51.7348C419.709 50.0374 419.57 48.0159 419.416 45.7013C419.169 41.1337 419.045 37.6925 419.045 35.3779L418.922 34.2514C418.922 27.1222 420.743 21.8602 424.4 18.45C427.795 15.3792 433.196 13.8515 440.572 13.8515L440.818 14.7156C433.103 15.873 429.245 20.2245 429.245 27.7703C429.245 28.4339 429.291 29.2672 429.369 30.2548C429.446 31.2578 429.569 32.446 429.739 33.8656C429.909 35.1927 430.032 36.35 430.109 37.3531C430.186 38.3561 430.233 39.1739 430.233 39.8374V45.6858C430.233 54.4816 428.829 61.5336 426.005 66.8264C423.35 72.0576 418.459 77.2424 411.33 82.381L411.577 82.8748C419.045 80.5601 425.094 79.3874 429.739 79.3874C434.214 79.3874 438.118 80.2978 441.436 82.1187C442.022 82.4581 442.686 82.8285 443.426 83.2451C444.167 83.6618 445 84.2019 445.911 84.8654C446.991 85.6061 447.824 85.9919 448.395 85.9919C449.136 85.9919 450.556 85.0814 452.623 83.2606L454.49 85.0043L440.772 98.0744Z" fill="black"/>
<path d="M492.405 95.4666C487.097 92.6427 484.443 88.1677 484.443 82.0262L467.53 95.5901H466.913C461.018 90.112 458.086 84.8038 458.086 79.6652C458.086 72.0422 462.191 64.5273 470.4 57.1512L464.429 41.5967L466.049 41.7201C470.694 42.1368 474.968 40.5165 478.857 36.8748L496.525 42.7232L500.013 39.9918L500.26 40.4857C498.269 43.5564 496.865 46.7507 496.031 50.0683V82.6588C496.618 84.7266 497.775 86.0228 499.519 86.5166L501.756 85.3901L503.13 86.5166L492.405 95.4666ZM484.443 49.4357L466.404 42.7232L471.635 56.9043L484.443 63.1231V49.4357ZM484.566 65.3606L471.635 58.8949C469.228 63.2002 468.024 67.274 468.024 71.0855C468.024 76.7333 470.431 81.949 475.246 86.7635L484.582 78.801V65.3606H484.566Z" fill="black"/>
<path d="M549.006 41.4733L537.68 56.7809L549.377 64.0026V86.887C546.553 87.7974 543.868 89.0473 541.291 90.6213C540.627 91.0379 539.67 91.6397 538.436 92.4267C537.186 93.2137 535.705 94.1859 533.961 95.3432C529.64 93.1828 525.458 92.1027 521.4 92.1027C517.496 92.1027 513.314 93.0594 508.839 94.9574L507.219 93.831L522.017 72.6904L510.073 66.1013V46.9513C515.629 44.4669 520.736 41.0258 525.381 36.6279C532.341 40.0227 537.649 41.7201 541.306 41.7201L544.547 41.3498C545.704 41.3498 546.784 40.9177 547.787 40.0381C548.775 39.174 549.284 38.1556 549.284 36.9828C549.284 36.1495 548.373 34.5756 546.553 32.2609L545.935 31.1344C545.935 29.8073 546.923 29.1438 548.914 29.1438C551.398 29.1438 552.648 30.6715 552.648 33.7423C552.602 35.594 551.398 38.171 549.006 41.4733ZM531.214 65.3606L517.403 83.2761C519.641 82.7823 522.341 82.5354 525.489 82.5354C529.794 82.5354 534.285 83.6619 538.93 85.8994L539.053 69.3572L531.214 65.3606ZM537.309 48.9419C536.152 49.0191 534.902 49.0654 533.575 49.0654C529.764 49.0654 525.613 48.1549 521.138 46.334L521.014 60.6387L528.483 64.4964L540.55 48.5715C539.547 48.7413 538.467 48.8647 537.309 48.9419Z" fill="black"/>
<path d="M590.423 100.312C584.775 104.046 577.646 106.731 569.02 108.398L568.649 107.657C572.708 106.083 576.01 104.695 578.541 103.491C581.071 102.287 582.908 101.269 584.081 100.451C588.478 97.2105 590.67 92.612 590.67 86.6401V51.8122C590.176 49.5747 588.602 47.6303 585.948 45.9638L576.118 53.309V84.0323L579.359 87.6432L569.899 95.8525L560.564 88.2604L564.174 84.0323V45.0996H558.079V39.0044H564.421V31.6592C564.421 26.104 562.924 21.953 559.946 19.2217L560.193 18.9748C563.264 20.1321 565.826 21.5055 567.909 23.0795L569.776 22.956C573.418 18.8051 577.399 16.7373 581.72 16.7373C578.155 19.8081 576.365 23.5733 576.365 28.0637V50.0839L593.787 37.2761C599.265 40.9333 601.996 45.7786 601.996 51.8276V82.1806C601.996 89.4486 598.138 95.513 590.423 100.312Z" fill="black"/>
<path d="M622.519 69.3414V82.2726L632.966 86.8711L641.175 81.64L642.549 83.1368C641.468 83.8003 640.373 84.5102 639.246 85.2508C638.12 85.9915 636.947 86.8248 635.697 87.7353L624.88 95.3274C619.325 92.2566 613.6 90.1888 607.721 89.1086C610.035 86.7014 611.208 83.6769 611.208 80.0351V46.8274C614.109 45.5004 616.948 44.0035 619.726 42.3524C622.504 40.7013 625.266 38.9113 627.997 36.9978L644.045 53.0462C634.91 59.4346 627.735 64.8664 622.519 69.3414ZM622.396 45.0837V66.4866L634.216 57.1508L622.396 45.0837Z" fill="black"/>
<path d="M691.064 86.2542C683.765 88.6615 677.624 91.8557 672.655 95.8369C666.019 91.0224 658.551 87.751 650.264 86.0073C652.579 83.9396 653.752 80.7453 653.752 76.4246V46.6889C655.249 46.2722 656.931 45.6704 658.782 44.8834C660.649 44.0964 662.748 43.1243 665.063 41.967L649.261 31.767V19.9468L687.083 44.081C688.163 42.2601 689.814 40.8868 692.052 39.9764C691.388 41.7972 691.064 43.5872 691.064 45.331V86.2542ZM679.244 51.1793L669.414 44.5902L665.31 47.0746V81.0385L679.244 86.0227V51.1793Z" fill="black"/>
<path d="M715.693 84.7728C715.693 86.2696 710.848 95.0962 709.721 95.0962C708.718 95.0962 702.376 90.4977 702.376 89.1243C702.376 87.7509 706.481 76.8103 708.348 76.8103C709.845 76.8103 715.693 83.1525 715.693 84.7728Z" fill="black"/>
<path d="M763.328 17.91C762.696 18.5427 734.673 94.4637 734.148 94.9884C733.407 95.7291 725.167 88.9548 726.001 88.4301C726.741 88.0135 755.721 10.0711 755.721 9.96304C756.353 8.80571 763.652 17.0613 763.328 17.91ZM730.969 88.1215L731.386 86.9642C731.911 86.0075 732.451 84.7421 732.759 83.4768C733.284 82.2114 733.716 80.9461 734.025 79.9893L734.349 78.832C734.241 79.1561 733.932 79.4647 733.824 79.8968C733.5 80.8535 732.867 82.1188 732.451 83.3842C732.034 84.6495 731.602 85.9149 731.185 86.8716L730.861 88.0289C730.753 88.245 730.753 88.4456 730.753 88.5536L730.969 88.1215ZM736.787 77.1192C737.528 75.5297 737.944 73.9403 738.484 72.3664C739.225 70.777 739.549 69.5116 739.966 68.2463C740.29 67.0889 740.706 66.0242 740.814 65.2835L741.138 64.5428C741.246 64.4348 741.246 64.3268 741.246 64.2188L741.138 64.4348L740.722 65.2835L739.456 68.1383C739.132 69.2956 738.608 70.5764 737.867 72.1503C737.342 73.7397 736.802 75.2211 736.062 76.8105L734.364 81.4553C733.948 83.0447 733.407 84.4181 733.099 85.6834C732.574 86.8407 732.358 87.7975 732.034 88.5382C731.926 88.9548 731.818 89.0628 731.818 89.3869V89.7109C731.71 89.6029 731.71 89.4949 731.818 89.3869C731.818 89.2788 731.926 89.0628 732.235 88.6462C732.559 87.9055 732.759 86.9488 733.5 85.7914C733.917 84.6341 734.349 83.3533 735.089 81.7793C735.846 80.1899 736.262 78.7086 736.787 77.1192ZM743.87 62.1047C743.87 61.9967 743.87 61.9967 743.978 61.8887C743.978 61.9967 743.978 61.9967 743.87 62.1047C743.762 62.2127 743.654 62.3207 743.546 62.6294C743.222 63.046 743.129 63.7867 742.805 64.5274C742.064 66.1168 741.324 68.1228 740.367 70.5609C739.518 72.783 738.885 75.0051 738.361 76.6871C738.037 77.6438 737.944 78.2765 737.836 78.8011C737.728 79.0172 737.728 79.2178 737.728 79.4338C737.728 79.5418 737.728 79.5418 737.62 79.6498C737.62 79.5418 737.62 79.5418 737.728 79.4338C737.836 79.3258 737.836 79.2178 737.944 78.9092C738.268 78.3845 738.469 77.7518 738.793 76.9031C739.642 75.3137 740.382 73.0916 741.231 70.8696L743.237 64.7434C743.561 63.8947 743.453 63.154 743.762 62.6294C743.762 62.3207 743.87 62.2127 743.87 62.1047Z" fill="black"/>
<path d="M812.075 65.4842C806.689 76.1625 793.789 95.0964 782.679 95.0964C778.867 95.0964 772.633 88.4302 772.633 85.1588C772.633 78.3846 781.521 64.6509 786.598 52.6918C764.393 74.8971 754.455 94.9884 753.082 94.9884C751.384 94.9884 746.848 90.9763 746.848 87.2729C746.848 83.6774 769.053 39.1587 769.053 35.1466C769.053 35.0386 769.053 34.8226 769.161 34.73C769.269 34.4059 769.578 34.2053 770.01 34.2053C772.232 34.2053 776.568 37.1681 776.568 40.6555C776.568 42.461 772.756 51.8585 768.852 61.0709C777.525 50.7166 788.62 38.0168 790.842 36.6434C790.95 36.6434 791.058 36.5354 791.166 36.5354C791.274 36.5354 791.274 36.5354 791.382 36.6434C791.598 36.6434 791.706 36.6434 791.798 36.7514C793.496 37.6002 797.724 40.9796 797.724 46.5811C797.724 52.9232 782.185 78.1994 782.185 84.6496C788.959 84.6496 798.789 72.2738 805.764 59.1728C806.89 57.244 812.924 63.4781 812.075 65.4842ZM766.075 61.04C766.815 59.4506 767.232 58.0772 767.973 56.7039L769.454 52.8924L770.504 50.2537L770.72 49.513C770.72 49.4049 770.72 49.2969 770.828 49.1889L765.751 60.824L762.263 68.8636L761.106 71.5023C760.89 71.8263 760.782 72.135 760.689 72.459C760.797 72.135 761.013 71.8263 761.214 71.5023L762.479 68.9716C763.004 67.8142 763.436 66.6415 764.177 65.2681C764.917 63.8948 765.334 62.4134 766.075 61.04ZM767.772 59.8827C767.772 59.7746 767.772 59.7746 767.88 59.6666C767.988 59.5586 767.88 59.3426 768.204 59.0339L769.362 56.7039C769.886 55.7471 770.426 54.5898 770.951 53.4325C771.476 52.1671 772.108 50.9018 772.648 49.513C773.173 48.2476 773.605 46.8743 774.022 45.5935L775.087 42.106C775.303 41.0413 775.411 40.208 775.411 39.4673V39.0507C775.411 38.9427 775.411 38.8347 775.303 38.7266C775.195 38.6186 775.195 38.6186 775.195 38.5106C775.195 38.5106 775.195 38.6186 775.303 38.7266V39.0507V39.4673L775.087 40.5321C774.762 40.9487 774.763 41.4888 774.67 41.9054C774.346 43.0628 773.821 44.1275 773.405 45.3929L771.815 49.2043C771.29 50.5777 770.766 51.8431 770.334 53.1238L768.96 56.5033C768.636 57.6606 768.436 58.4013 768.112 58.9414L767.772 59.8827ZM778.034 73.3077C778.775 71.9343 779.191 70.669 779.932 69.3882C780.457 68.0149 780.981 66.8575 781.521 66.0088C781.938 64.8515 782.154 64.1108 782.478 63.5707L782.802 62.83C782.694 62.938 782.478 63.1541 782.385 63.4627L781.12 65.7928C780.595 66.7495 780.055 67.9068 779.315 69.0642C778.574 70.3295 778.049 71.6103 777.309 72.9837L775.611 76.9032C775.287 77.6439 775.195 78.1685 774.87 78.7086C774.546 79.4493 774.454 79.974 774.346 80.4986C774.13 81.0233 774.022 81.5634 774.022 81.98C773.914 82.3966 773.806 82.7207 773.806 83.1373V83.878V84.0941C773.806 84.0941 773.806 83.986 773.914 83.878C773.914 83.554 773.914 83.3534 774.022 83.1373C774.13 82.3966 774.438 81.5479 774.762 80.6066C775.179 79.4493 775.719 78.3846 776.244 77.2272C776.969 75.9619 777.293 74.5731 778.034 73.3077ZM788.496 92.5503L788.913 92.2263L788.496 92.4423L787.339 92.8589C786.382 93.2755 785.333 93.5996 783.959 93.7076H783.003C782.679 93.7076 782.37 93.5996 782.046 93.5996C781.521 93.4916 780.981 93.3836 780.457 93.0749L779.824 92.7509C779.716 92.7509 779.5 92.6429 779.407 92.5349C779.083 92.5349 779.191 92.4268 779.083 92.4268C778.975 92.4268 778.975 92.4269 778.975 92.3188L779.299 92.6429L779.716 92.9669L780.349 93.291C780.765 93.6151 781.197 93.8156 781.938 93.9237L782.895 94.1397H783.959C784.7 94.1397 785.117 94.0317 785.857 93.7231C786.598 93.6151 787.015 93.399 787.447 93.0904C787.864 92.7663 788.172 92.8743 788.496 92.5503ZM784.268 61.4721C783.743 62.6294 783.203 63.4781 782.787 64.6509C782.262 65.6076 781.938 66.5489 781.521 67.3976C781.197 68.2463 780.889 68.879 780.781 69.4036C780.673 69.7277 780.565 69.9283 780.565 70.1444L780.889 69.4036C781.213 68.987 781.305 68.3543 781.737 67.5056C782.586 65.9162 783.435 63.8022 784.592 61.6881L786.073 58.6173L787.339 55.8706C787.663 55.1299 787.863 54.3892 788.188 53.8645L788.512 53.1238C788.404 53.3399 788.188 53.5405 788.095 53.8645C787.771 54.2812 787.57 55.0219 787.138 55.7626C786.382 57.4446 785.425 59.358 784.268 61.4721Z" fill="black"/>
<path d="M866.208 65.1754C861.979 72.7829 847.49 95.0963 831.21 95.0963C825.5 95.0963 817.044 87.3807 815.347 72.5669C814.081 72.6749 812.708 72.7829 811.335 72.7829C810.702 72.7829 810.177 72.6749 809.637 72.4589C805.517 82.1805 802.77 89.8034 802.77 91.8094C802.77 94.2476 801.505 95.0808 800.24 95.0808C798.126 95.0808 793.049 91.902 793.049 88.4146C793.049 86.1925 829.636 7.74083 829.636 0.858562C829.636 -2.41283 837.043 4.56202 837.043 6.7841C837.043 9.85489 826.889 32.4769 817.584 53.9415C825.408 44.4206 836.827 33.2176 844.65 33.2176C848.462 33.2176 853.647 39.2511 853.647 44.7446C853.647 52.8922 839.373 67.3666 821.396 71.6101C820.871 77.5357 820.439 88.106 829.744 88.106C841.58 88.106 855.545 67.166 859.665 59.3424C860.714 57.4444 867.056 63.586 866.208 65.1754ZM802.446 69.2955L802.122 70.0362C801.798 70.4528 801.49 71.1935 801.166 71.9342L800.008 74.5729C799.592 75.7302 799.052 76.579 798.635 77.7517L797.37 80.9305C796.953 81.8872 796.629 82.8285 796.32 83.6772C795.996 84.526 795.904 85.1586 795.58 85.6833L796.536 83.7853C796.86 82.9366 797.277 82.1959 797.694 81.0385L799.067 77.8597C799.484 76.7024 799.916 75.7457 800.332 74.7889L801.397 71.9342L802.446 69.2955ZM816.628 53.2163C816.736 52.8922 817.044 52.5836 817.368 51.8429L819.698 46.8741L822.97 39.6832L826.565 31.4276C827.722 28.5728 828.895 25.7181 830.053 23.0794L832.907 15.7804C833.756 13.6664 834.389 11.8609 834.805 10.5956C835.129 9.85489 835.129 9.43826 835.222 9.11421C835.33 8.89817 835.33 8.69755 835.438 8.58953C835.33 8.69755 835.33 8.9136 835.222 9.11421L834.697 10.4876L832.475 15.6724L825.809 31.1035L822.322 39.3591L819.251 46.6581L817.137 51.7349L816.628 53.2163C816.52 53.4323 816.519 53.6329 816.411 53.7409C816.411 53.6483 816.52 53.4323 816.628 53.2163ZM819.899 62.9533C829.204 59.5739 842.428 52.167 846.332 40.748C838.293 40.748 825.824 55.6544 819.899 62.9533ZM821.797 51.7349C821.473 52.0589 821.38 52.1515 821.272 52.4756L821.056 52.7996L821.905 51.8429C822.43 51.1022 823.278 50.5776 824.235 49.4048L825.716 47.8154C826.457 47.2907 826.781 46.7661 827.522 46.0254C828.787 44.8681 829.96 43.5873 831.534 42.4299C832.275 41.6892 832.799 41.1646 833.54 40.6245C834.281 40.0998 834.913 39.4672 835.654 39.0351C836.395 38.5104 837.135 37.9704 837.768 37.6617C838.509 37.2451 838.925 36.921 839.666 36.597C839.99 36.2729 840.191 36.2729 840.515 36.1803C840.931 36.0723 841.256 35.9643 841.364 35.8563C841.888 35.5322 842.32 35.5322 842.737 35.4397L843.694 35.2236H842.737C842.32 35.3316 841.78 35.2236 841.256 35.5477L840.407 35.7637C839.99 35.8717 839.666 36.0878 839.45 36.1803L837.444 37.1371L835.222 38.4024L833.108 39.9918C832.367 40.7325 831.627 41.0566 830.886 41.7973C830.145 42.5379 829.62 43.0626 828.88 43.6027C828.139 44.3434 827.722 44.9761 826.982 45.5007C825.824 46.7661 824.76 47.9388 823.911 49.0962L821.797 51.7349ZM822.013 33.9737L821.689 34.8224L822.106 33.9737C822.522 33.233 822.846 32.2763 823.587 31.1189L825.485 26.9988C826.226 25.4094 826.75 23.9281 827.491 22.2461C828.232 20.6567 828.756 19.0673 829.497 17.4933C830.238 15.9039 830.654 14.5305 831.194 13.2652C831.719 12.1078 832.043 11.0431 832.352 10.3024L832.568 9.45369C832.568 9.34568 832.568 9.23765 832.676 9.12963C832.676 9.23765 832.676 9.34568 832.568 9.45369C832.46 9.77775 832.244 9.97834 832.151 10.1944C831.827 10.9351 831.302 11.8918 830.778 13.1571L828.88 17.1692L826.766 21.922C826.025 23.6194 825.5 25.1934 824.76 26.7828C824.019 28.3722 823.602 29.7456 823.17 30.9029L822.013 33.9737ZM845.175 46.5655C845.283 46.4574 845.283 46.3494 845.391 46.3494L845.175 46.5655C845.067 46.8895 844.959 46.9821 844.65 47.3062C844.326 47.6302 844.126 48.0469 843.694 48.4635L842.536 49.9449L841.055 51.5343C840.53 52.0589 839.99 52.6916 839.249 53.2317C838.725 53.9724 838.092 54.281 837.351 55.0217L835.237 56.7191L833.015 58.3085L830.793 59.6819C829.204 60.5306 827.83 61.2713 826.673 61.796C825.408 62.5367 824.343 62.8607 823.602 63.1693C823.186 63.4934 823.078 63.3854 822.754 63.4934C823.078 63.4934 823.17 63.3854 823.602 63.2773C824.019 62.9533 824.451 63.0613 824.976 62.7527C825.5 62.4286 826.04 62.3361 826.781 62.012L828.787 61.1633L830.901 60.006C831.75 59.5893 832.491 59.0492 833.231 58.6326L835.453 57.0432L837.568 55.3458C838.308 54.6051 838.833 54.281 839.574 53.5558C840.314 52.8151 840.731 52.491 841.271 51.7503L842.752 50.0529L843.817 48.5715C844.234 48.1549 844.342 47.7228 844.666 47.4142L845.175 46.5655ZM844.11 35.5631L842.737 35.8871C841.58 36.2112 840.839 36.7359 840.098 37.0445C839.774 37.3685 839.358 37.5691 839.033 37.6772C839.141 37.6772 839.249 37.6772 839.358 37.5692C839.682 37.4611 839.882 37.5691 840.206 37.2451L842.845 36.2884C844.002 35.9643 844.851 35.7637 845.484 35.8717C845.808 35.8717 846.008 35.9797 846.332 35.9797C846.008 35.8717 845.916 35.6557 845.484 35.5631H844.851H844.11Z" fill="black"/>
<path d="M23.5 148.398H1223.5" stroke="black" stroke-width="2" stroke-linecap="round"/>
</svg>
