<svg width="926" height="157" viewBox="0 0 926 157" fill="none" xmlns="http://www.w3.org/2000/svg">
<path d="M38.3332 3.39999H13.5332V0.699999H66.0332V3.39999H41.1332V71H38.3332V3.39999ZM176.089 0.699999H179.089L207.989 71H204.989L196.789 51H158.389L150.189 71H147.189L176.089 0.699999ZM195.689 48.3L177.789 4.29999L177.589 3.7L177.389 4.29999L159.489 48.3H195.689ZM313.993 3.39999H289.193V0.699999H341.693V3.39999H316.793V71H313.993V3.39999ZM438.686 0.699999H441.486V71H438.686V0.699999ZM568.437 0.699999H571.437L600.337 71H597.337L589.137 51H550.737L542.537 71H539.537L568.437 0.699999ZM588.037 48.3L570.137 4.29999L569.937 3.7L569.737 4.29999L551.837 48.3H588.037ZM698.33 0.699999H700.73L752.73 66.1V0.699999H755.53V71H753.13L701.13 5.8V71H698.33V0.699999ZM882.574 0.699999H885.574L914.474 71H911.474L903.274 51H864.874L856.674 71H853.674L882.574 0.699999ZM902.174 48.3L884.274 4.29999L884.074 3.7L883.874 4.29999L865.974 48.3H902.174Z" fill="black"/>
<path d="M10.1285 86.7H23.6285V114.1H56.5285V86.7H70.1285V157H56.5285V127.1H23.6285V157H10.1285V86.7ZM187.386 86.7H237.586V99.1H200.886V115.4H230.186V127.1H200.886V144.6H238.286V157H187.386V86.7ZM351.07 86.7H380.07C384.803 86.7 389.003 87.6667 392.67 89.6C396.337 91.5333 399.17 94.2667 401.17 97.8C403.17 101.333 404.17 105.4 404.17 110C404.17 114.6 403.137 118.567 401.07 121.9C399.07 125.233 396.27 127.867 392.67 129.8L405.97 157H390.67L379.67 133.3L376.37 133.4H364.57V157H351.07V86.7ZM378.87 121.4C382.337 121.4 385.137 120.367 387.27 118.3C389.403 116.167 390.47 113.433 390.47 110.1C390.47 106.7 389.403 104 387.27 102C385.137 100 382.37 99 378.97 99H364.57V121.4H378.87ZM517.488 86.7H546.488C551.221 86.7 555.421 87.6667 559.088 89.6C562.755 91.5333 565.588 94.2667 567.588 97.8C569.588 101.333 570.588 105.4 570.588 110C570.588 114.6 569.555 118.567 567.488 121.9C565.488 125.233 562.688 127.867 559.088 129.8L572.388 157H557.088L546.088 133.3L542.788 133.4H530.988V157H517.488V86.7ZM545.288 121.4C548.755 121.4 551.555 120.367 553.688 118.3C555.821 116.167 556.888 113.433 556.888 110.1C556.888 106.7 555.821 104 553.688 102C551.555 100 548.788 99 545.388 99H530.988V121.4H545.288ZM705.264 86.7H717.964L745.164 157H731.164L726.264 143.5H696.964L692.064 157H677.964L705.264 86.7ZM710.964 105.2L701.264 131.9H721.964L712.264 105.2L711.564 102.8L710.964 105.2ZM854.718 86.7H868.318L901.618 134.2V86.7H914.918V157H902.318L867.918 108.1V157H854.718V86.7Z" fill="black"/>
</svg>
